<svg width="36" height="36" viewBox="0 0 36 36" fill="none" xmlns="http://www.w3.org/2000/svg">
<path d="M32.7273 0H3.27273C1.46455 0 0 1.46455 0 3.27273V32.7273C0 34.5355 1.46455 36 3.27273 36H32.7273C34.5355 36 36 34.5355 36 32.7273V3.27273C36 1.46455 34.5355 0 32.7273 0ZM11.3793 29.4545H6.552V13.9222H11.3793V29.4545ZM8.91655 11.7016C7.36036 11.7016 6.102 10.44 6.102 8.88709C6.102 7.33418 7.362 6.07418 8.91655 6.07418C10.4678 6.07418 11.7295 7.33582 11.7295 8.88709C11.7295 10.44 10.4678 11.7016 8.91655 11.7016ZM29.4611 29.4545H24.6371V21.9011C24.6371 20.0995 24.6044 17.7824 22.1285 17.7824C19.6167 17.7824 19.2305 19.7444 19.2305 21.7702V29.4545H14.4065V13.9222H19.0375V16.0445H19.1029C19.7476 14.8238 21.3218 13.536 23.67 13.536C28.5578 13.536 29.4611 16.7531 29.4611 20.9356V29.4545Z" fill="#FFFDFD"/>
</svg>
